<svg width="1024" height="1024" xmlns="http://www.w3.org/2000/svg" t="1658805499909" class="icon" version="1.1" p-id="1931">
 <g>
  <title>Layer 1</title>
  <path d="m929.22311,350.96582l-142.22222,-174.93334l0,-138.97955c0,-19.62667 -17.06667,-35.49867 -38.05867,-35.49867l-464.78222,0c-21.04889,0 -38.05867,15.872 -38.05867,35.49867l0,137.78489l-149.78844,163.27111c-5.97333,6.42844 -9.27289,14.62044 -9.27289,23.09689l0,625.89155c0,19.62667 17.06667,35.49867 38.11556,35.49867l773.68889,0c20.992,0 38.05866,-15.872 38.05866,-35.49867l0,-614.74133c0.05689,-7.73689 -2.67378,-15.24622 -7.68,-21.39022l0,0l0,0zm-189.15555,-307.65511l0,113.60711l-447.08978,0l0,-113.60711l417.84889,0l29.24089,0l0,0zm-596.30934,339.17155l325.85956,0c12.62933,0 22.86933,-9.50044 22.86933,-21.27644c0,-11.776 -10.24,-21.27645 -22.86933,-21.27645l-304.07111,0c0,0 128.85333,-139.776 129.36533,-140.40178l409.14489,0l-121.96978,150.24356c-5.46133,6.31467 -8.47644,14.16533 -8.47644,22.30044l0,599.04l-429.85245,0l0,-588.62933l0,0l0,0l0,0zm736.48356,588.62933l-249.91289,0l0,-596.25244l118.84089,-154.85156l131.12889,154.51023l0,567.296l0,29.29777l-0.05689,0zm0,0" p-id="1932" fill="#bf1932" id="svg_1"/>
  <path stroke="#bf1932" stroke-width="4" id="svg_2" d="m202.55726,481l312.01246,0l0,490.46448l-312.01246,0l0,-490.46448z" fill="#bf1932"/>
 </g>

</svg>